<svg id="Group_3" data-name="Group 3" xmlns="http://www.w3.org/2000/svg" xmlns:xlink="http://www.w3.org/1999/xlink" width="522.901" height="316.317" viewBox="0 0 522.901 316.317">
  <defs>
    <clipPath id="clip-path">
      <rect id="Rectangle_5" data-name="Rectangle 5" width="522.901" height="316.317" fill="none"/>
    </clipPath>
  </defs>
  <path id="Path_1" data-name="Path 1" d="M119.639,120.389,101.877,264.966h-12.6L69.037,193.091,49,264.966H36.4L18.643,120.389H41.568l7.848,72.081,13.218-49.156H75.646L88.865,192.47l7.848-72.081Z" transform="translate(-1.22 -7.879)" fill="#003860"/>
  <path id="Path_2" data-name="Path 2" d="M207.436,120.389V264.966H184.717V202.179H161.585v62.786H138.865V120.389h22.719v59.07h23.132v-59.07Z" transform="translate(-9.088 -7.879)" fill="#003860"/>
  <path id="Path_3" data-name="Path 3" d="M252.634,143.109v36.35h25.61v22.72h-25.61v40.067h37.176v22.72h-59.9V120.389h59.9v22.72Z" transform="translate(-15.047 -7.879)" fill="#003860"/>
  <path id="Path_4" data-name="Path 4" d="M331.749,143.109v36.35h25.61v22.72h-25.61v40.067h37.176v22.72h-59.9V120.389h59.9v22.72Z" transform="translate(-20.224 -7.879)" fill="#003860"/>
  <path id="Path_5" data-name="Path 5" d="M448.04,264.966h-59.9V120.389h22.72V242.246H448.04Z" transform="translate(-25.402 -7.879)" fill="#003860"/>
  <g id="Group_2" data-name="Group 2">
    <g id="Group_1" data-name="Group 1" clip-path="url(#clip-path)">
      <path id="Path_6" data-name="Path 6" d="M494.694,266.5q-14.871,0-23.959-8.468-10.329-9.914-10.327-27.056V212.183h22.72v18.795q0,7.434,3.1,10.326,2.683,2.481,8.469,2.478,5.987,0,8.468-2.478,3.1-2.68,3.1-10.326V221.89q0-9.5-7.642-16.523a67.24,67.24,0,0,0-8.675-5.37q-9.71-5.162-14.251-9.089a45.82,45.82,0,0,1-11.36-15.077,42.663,42.663,0,0,1-3.925-18.174v-3.512q0-17.139,10.327-27.056,9.088-8.466,23.959-8.467t23.958,8.467q10.325,9.914,10.327,27.056v12.6H506.26v-12.6q0-7.639-3.1-10.325-2.478-2.48-8.468-2.479-5.785,0-8.469,2.479-3.1,2.893-3.1,10.325v3.512q0,9.5,7.642,16.316a64.546,64.546,0,0,0,8.055,4.958q10.737,5.783,14.871,9.5,15.281,13.63,15.284,33.458v9.088q0,17.146-10.327,27.056-9.092,8.471-23.958,8.468" transform="translate(-30.131 -7.763)" fill="#003860"/>
      <path id="Path_7" data-name="Path 7" d="M103.8,107.513s57.452,22.313,123.615-3.04c71.927-27.563,124.684-7.79,145.2,6.859,0,0-60.5-18.338-101.884-2.1-44.971,17.644-99.3,32.483-166.935-1.717" transform="translate(-6.793 -5.933)" fill="#76c3c9"/>
      <path id="Path_8" data-name="Path 8" d="M287.833,71.715a16.435,16.435,0,0,1-3.677,5.3q-4.731,4.409-12.468,4.406a19.72,19.72,0,0,1-8.559-1.753,184.492,184.492,0,0,0-31.085,15.571c29.881-10.642,53.644-14.768,73.176-15.053V68.367a165.584,165.584,0,0,0-17.387,3.349" transform="translate(-15.186 -4.474)" fill="#009fc1"/>
      <path id="Path_9" data-name="Path 9" d="M388.1,79.415l-.191,1.057H375.87l1.007-5.036q-2.609-.855-5.411-1.71v6.747H340.3V67.31a131.825,131.825,0,0,0-17.3-.167V80.4c23.465,1.606,40.28,8.9,54.718,15.8,27.721,13.254,56.551,31.1,92.034,28.4,30.646-2.335,63.769-29.52,72.232-36.89-5.313,4.06-22.224,13.62-65.579,15.916-46.089,2.44-51.962-10.293-88.3-24.214" transform="translate(-21.138 -4.381)" fill="#009fc1"/>
      <path id="Path_10" data-name="Path 10" d="M559.375,87.2s-.726.673-2.062,1.836a13.548,13.548,0,0,0,2.062-1.836" transform="translate(-36.473 -5.707)" fill="#003860"/>
      <path id="Path_11" data-name="Path 11" d="M90.487,74.034a15.389,15.389,0,0,0,1.9-1.489q5.373-5.159,5.374-14.08V18.485q0-8.92-5.374-14.079Q87.661,0,79.925,0T67.459,4.406q-5.376,5.159-5.374,14.079V58.465c0,5,1.281,9.1,3.813,12.328a90.539,90.539,0,0,0-11.443.133V.86H42.632V31.6H30.6V.86H18.773V76.091H30.6V43.419H42.632V72.79C5.117,82.068,0,118.657,0,118.657S26.424,72.4,100.55,93.83c65.281,18.874,106,.42,106,.42-59.483,10.631-72.5-11.131-116.061-20.216M73.906,18.485q0-3.869,1.613-5.374a6.343,6.343,0,0,1,4.406-1.29q3.116,0,4.406,1.29,1.612,1.4,1.612,5.374V58.465q0,3.978-1.612,5.374-1.29,1.29-4.406,1.29a6.343,6.343,0,0,1-4.406-1.29q-1.613-1.5-1.613-5.374Z" transform="translate(0 0)" fill="#003860"/>
      <path id="Path_12" data-name="Path 12" d="M121.365,76.151h11.821V12.742h12.037V.92h-35.9V12.742h12.037Z" transform="translate(-7.155 -0.06)" fill="#003860"/>
      <path id="Path_13" data-name="Path 13" d="M226.225,48.578,215.907,42.56l-2.365,3.977A53.023,53.023,0,0,0,205.7,38.8l-2.149-1.613a11.924,11.924,0,0,0,1.827-1.5,22.1,22.1,0,0,0,6.019-7.792,22.591,22.591,0,0,0,2.041-9.511V16.551a16.394,16.394,0,0,0-2.041-8.221,15.207,15.207,0,0,0-5.8-5.75,21.076,21.076,0,0,0-20.206,0,15.175,15.175,0,0,0-5.8,5.75,16.365,16.365,0,0,0-2.042,8.221v1.827a26.348,26.348,0,0,0,5.8,16.229l-.43.215q-6.556,4.514-9.134,9.3a19.358,19.358,0,0,0-2.58,9.189,24.669,24.669,0,0,0,2.15,10.8,21.677,21.677,0,0,0,5.265,7.147q6.663,5.8,16.873,5.8a21.881,21.881,0,0,0,8.975-1.935,24.07,24.07,0,0,0,7.791-5.589l.752-.859a23.42,23.42,0,0,1,1.29,7.415h12.037q0-8.705-5.374-18.808,2.686-4.191,5.267-8.705m-36.65-32.027a4.288,4.288,0,0,1,.483-2.2A4.025,4.025,0,0,1,191.4,13a8.3,8.3,0,0,1,8.168,0,3.778,3.778,0,0,1,1.451,1.344,4.278,4.278,0,0,1,.483,2.2v1.827a10.93,10.93,0,0,1-3.762,8.168,15.446,15.446,0,0,1-3.654,2.471q-4.514-5.262-4.514-10.639Zm13.972,44.708a10.927,10.927,0,0,1-8.061,3.87q-5.8,0-9.028-2.9-3.332-2.9-3.332-8.92,0-3.976,6.448-8.49l2.364-1.5,4.191,3.224,2.149,1.72a50.709,50.709,0,0,1,8.49,8.92,33.5,33.5,0,0,1-3.224,4.083" transform="translate(-11.204)" fill="#003860"/>
      <path id="Path_14" data-name="Path 14" d="M291.057,25.041V18.485q0-8.92-5.374-14.079Q280.952,0,273.216,0T260.749,4.406q-5.375,5.16-5.374,14.079v1.827a22.2,22.2,0,0,0,2.043,9.459,23.836,23.836,0,0,0,5.91,7.845,41.975,41.975,0,0,0,7.417,4.73,35.086,35.086,0,0,1,4.514,2.793,11.33,11.33,0,0,1,3.977,8.6v4.729q0,3.978-1.612,5.374-1.291,1.29-4.407,1.29a6.349,6.349,0,0,1-4.406-1.29q-1.611-1.5-1.611-5.374v-9.78H255.375v9.78q0,8.923,5.374,14.079a15.384,15.384,0,0,0,3.908,2.652,19.707,19.707,0,0,0,8.559,1.754q7.74,0,12.468-4.406a16.444,16.444,0,0,0,3.677-5.3,21.581,21.581,0,0,0,1.7-8.776V53.737A22.439,22.439,0,0,0,283.1,36.326a43.239,43.239,0,0,0-7.737-4.944,33.471,33.471,0,0,1-4.191-2.579,11,11,0,0,1-3.977-8.49V18.485q0-3.868,1.611-5.374a6.349,6.349,0,0,1,4.406-1.29q3.116,0,4.407,1.29,1.611,1.4,1.612,5.374v6.556Z" transform="translate(-16.713 0)" fill="#003860"/>
      <path id="Path_15" data-name="Path 15" d="M297.465.92V12.742H309.5V75.776c4.123-.06,8.058.051,11.821.308V12.742H333.36V.92Z" transform="translate(-19.468 -0.06)" fill="#003860"/>
      <path id="Path_16" data-name="Path 16" d="M372.677,12.742V.92H341.509V76.152h31.168V64.329H353.332V43.48h13.327V31.658H353.332V12.742Z" transform="translate(-22.35 -0.06)" fill="#003860"/>
      <path id="Path_17" data-name="Path 17" d="M442.454,38.643l9.565,25.685H458.9l9.565-25.685V76.152h11.822V.92h-6.771l-18.056,41.7L437.4.92h-6.771V76.152h11.822Z" transform="translate(-28.183 -0.06)" fill="#003860"/>
      <path id="Path_18" data-name="Path 18" d="M503.445,76.151h11.931V49.713L529.99.92H517.524L509.355,27.9,501.4.92H488.936l14.508,48.793Z" transform="translate(-31.998 -0.06)" fill="#003860"/>
      <path id="Path_19" data-name="Path 19" d="M406.441.92H394.618l-14.039,70.2-1.007,5.036H391.61l.19-1.057,1.959-10.873H407.3l2.148,11.93h12.037ZM395.8,52.4l4.729-26.975L405.259,52.4Z" transform="translate(-24.841 -0.06)" fill="#003860"/>
      <path id="Path_20" data-name="Path 20" d="M128.9,307.317,125.361,336.1h-2.508l-4.029-14.31-3.99,14.31h-2.507l-3.537-28.784h4.564l1.563,14.35,2.632-9.786h2.591l2.632,9.786,1.563-14.35Z" transform="translate(-7.12 -20.112)" fill="#009ebd"/>
      <path id="Path_21" data-name="Path 21" d="M137.425,311.84v7.237h5.1V323.6h-5.1v7.977h7.4V336.1H132.9V307.316h11.925v4.523Z" transform="translate(-8.698 -20.112)" fill="#009ebd"/>
      <path id="Path_22" data-name="Path 22" d="M162.652,336.1h-6.827V307.317h6.827a6.71,6.71,0,0,1,4.769,1.727,6.9,6.9,0,0,1,2.057,5.345v14.8a8.485,8.485,0,0,1-.494,3,6.112,6.112,0,0,1-1.6,2.3,6.769,6.769,0,0,1-4.728,1.6m-2.3-4.523h2.3a2.555,2.555,0,0,0,1.726-.452,2.5,2.5,0,0,0,.577-1.933v-14.8a2.839,2.839,0,0,0-.617-2.055,2.432,2.432,0,0,0-1.686-.493h-2.3Z" transform="translate(-10.198 -20.112)" fill="#009ebd"/>
      <path id="Path_23" data-name="Path 23" d="M178.257,311.84v7.237h5.1V323.6h-5.1v7.977h7.4V336.1H173.733V307.316h11.925v4.523Z" transform="translate(-11.37 -20.112)" fill="#009ebd"/>
      <path id="Path_24" data-name="Path 24" d="M201.585,336.1H189.66V307.316h4.523v24.261h7.4Z" transform="translate(-12.412 -20.112)" fill="#009ebd"/>
      <rect id="Rectangle_3" data-name="Rectangle 3" width="4.523" height="28.784" transform="translate(191.516 287.204)" fill="#009ebd"/>
      <path id="Path_25" data-name="Path 25" d="M223.62,307.317h4.605L222.469,336.1h-4.524l-5.756-28.784h4.6l3.414,19.45Z" transform="translate(-13.887 -20.112)" fill="#009ebd"/>
      <path id="Path_26" data-name="Path 26" d="M236.291,311.84v7.237h5.1V323.6h-5.1v7.977h7.4V336.1H231.767V307.316h11.925v4.523Z" transform="translate(-15.168 -20.112)" fill="#009ebd"/>
      <path id="Path_27" data-name="Path 27" d="M261.224,336.1h-4.606l-2.344-11.555h-2.056V336.1h-4.523V307.317h6.827a6.717,6.717,0,0,1,4.77,1.726,6.9,6.9,0,0,1,2.056,5.346v3.085a6.952,6.952,0,0,1-2.056,5.386,4.351,4.351,0,0,1-.658.536Zm-4.4-21.712a2.838,2.838,0,0,0-.617-2.055,2.428,2.428,0,0,0-1.686-.494h-2.3v8.183h2.3a2.428,2.428,0,0,0,1.686-.493,2.752,2.752,0,0,0,.617-2.055Z" transform="translate(-16.21 -20.112)" fill="#009ebd"/>
      <path id="Path_28" data-name="Path 28" d="M308.9,325.985V336.1h-4.564V325.985l-5.551-18.669h4.77l3.043,10.321,3.125-10.321h4.77Z" transform="translate(-19.554 -20.112)" fill="#009ebd"/>
      <path id="Path_29" data-name="Path 29" d="M323.514,336.406a6.715,6.715,0,0,1-4.77-1.686,7.113,7.113,0,0,1-2.056-5.386v-15.3a7.112,7.112,0,0,1,2.056-5.387,7.587,7.587,0,0,1,9.54,0,7.116,7.116,0,0,1,2.056,5.387v15.3a7.117,7.117,0,0,1-2.056,5.386,6.715,6.715,0,0,1-4.77,1.686m0-24.918a2.434,2.434,0,0,0-1.686.493,2.753,2.753,0,0,0-.617,2.057v15.3a2.752,2.752,0,0,0,.617,2.056,2.434,2.434,0,0,0,1.686.492,2.342,2.342,0,0,0,1.686-.492,2.667,2.667,0,0,0,.617-2.056v-15.3a2.67,2.67,0,0,0-.617-2.057,2.342,2.342,0,0,0-1.686-.493" transform="translate(-20.726 -20.089)" fill="#009ebd"/>
      <path id="Path_30" data-name="Path 30" d="M341.2,336.429a6.717,6.717,0,0,1-4.77-1.686,7.113,7.113,0,0,1-2.056-5.386V307.317H338.9v22.041a2.79,2.79,0,0,0,.576,2.056,2.5,2.5,0,0,0,1.727.492,2.438,2.438,0,0,0,1.687-.492,2.756,2.756,0,0,0,.616-2.056V307.317h4.524v22.041a7.284,7.284,0,0,1-2.057,5.386,6.9,6.9,0,0,1-4.77,1.686" transform="translate(-21.883 -20.112)" fill="#009ebd"/>
      <path id="Path_31" data-name="Path 31" d="M372.984,336.1h-4.606l-2.344-11.555h-2.056V336.1h-4.523V307.317h6.827a6.717,6.717,0,0,1,4.77,1.726,6.9,6.9,0,0,1,2.056,5.346v3.085a6.952,6.952,0,0,1-2.056,5.386,4.348,4.348,0,0,1-.658.536Zm-4.4-21.712a2.838,2.838,0,0,0-.617-2.055,2.428,2.428,0,0,0-1.686-.494h-2.3v8.183h2.3a2.428,2.428,0,0,0,1.686-.493,2.752,2.752,0,0,0,.617-2.055Z" transform="translate(-23.525 -20.112)" fill="#009ebd"/>
      <path id="Path_32" data-name="Path 32" d="M381.622,311.84v7.237h5.1V323.6h-5.1v7.977h7.4V336.1H377.1V307.316h11.925v4.523Z" transform="translate(-24.679 -20.112)" fill="#009ebd"/>
      <path id="Path_33" data-name="Path 33" d="M404.951,336.1H393.026V307.316h4.523v24.261h7.4Z" transform="translate(-25.722 -20.112)" fill="#009ebd"/>
      <path id="Path_34" data-name="Path 34" d="M418.155,331.537h-5.181l-.822,4.564h-4.605l5.758-28.784h4.522l5.758,28.784h-4.606Zm-.781-4.523-1.809-10.321-1.809,10.321Z" transform="translate(-26.672 -20.112)" fill="#009ebd"/>
      <path id="Path_35" data-name="Path 35" d="M437.342,336.1l-3.207-8.512-3.166,8.512h-4.811L431.5,321.75l-5.346-14.433h4.811l3.166,8.512,3.166-8.512h4.852l-5.387,14.433,5.387,14.351Z" transform="translate(-27.89 -20.112)" fill="#009ebd"/>
      <line id="Line_1" data-name="Line 1" y2="28.878" transform="translate(261.844 287.204)" fill="#003860"/>
      <rect id="Rectangle_4" data-name="Rectangle 4" width="1.869" height="28.878" transform="translate(260.909 287.205)" fill="#003860"/>
    </g>
  </g>
</svg>
